<svg width="532" height="399" viewBox="0 0 532 399" fill="none" xmlns="http://www.w3.org/2000/svg">
<path fill-rule="evenodd" clip-rule="evenodd" d="M150.868 15.8733C294.779 -3.23879 377.726 -4.66845 531.133 15.8734L532 15.9895V16.8646V83.2497V84.2497H531H522.927V114.695V115.695H521.927H506.735C506.665 116.067 506.575 116.56 506.477 117.152C506.244 118.559 505.965 120.518 505.778 122.724C505.402 127.181 505.423 132.48 506.853 136.308C508.376 140.388 512.228 144.747 515.817 148.15C517.594 149.835 519.272 151.255 520.507 152.254C521.124 152.753 521.629 153.146 521.979 153.414C522.153 153.547 522.289 153.65 522.381 153.718L522.421 153.748L522.484 153.795L522.51 153.814L522.516 153.818L522.517 153.819L522.513 153.824L522.517 153.819L522.927 154.118V154.626V180.081H531H532V181.081V340.305V341.305H531H522.927V377.241V378.054L522.132 378.22C396.233 404.574 315.765 404.615 161.506 378.227L160.674 378.085V377.241V341.305H151H150V340.305V181.081V180.081H151H160.674V154.626V154.043L161.182 153.756C162.051 153.264 162.943 152.782 163.843 152.296C166.642 150.782 169.513 149.23 172.004 147.224C175.243 144.617 177.716 141.327 178.294 136.538L178.295 136.527L178.297 136.516C179.225 130.008 179.36 125.557 178.382 115.695H161.674H160.674V114.695V84.2497H151H150V83.2497V16.8646V15.9886L150.868 15.8733ZM162.674 341.417C309.407 357.008 388.271 357.024 520.927 341.43V376.429C396.002 402.508 315.87 402.554 162.674 376.398V341.417ZM180.392 115.695H504.701C504.642 116.017 504.575 116.396 504.504 116.825C504.265 118.271 503.977 120.284 503.785 122.556C503.537 125.495 503.442 128.939 503.851 132.163H180.824C181.226 127.568 181.123 123.126 180.392 115.695ZM180.62 134.163H504.178C504.382 135.157 504.645 136.113 504.979 137.007C506.675 141.55 510.829 146.176 514.441 149.601C516.265 151.331 517.985 152.786 519.249 153.809C519.882 154.321 520.401 154.725 520.763 155.002C520.822 155.047 520.877 155.089 520.927 155.127V180.705C381.559 187.461 302.512 186.945 162.674 180.624V155.212C163.314 154.856 163.98 154.497 164.662 154.128L164.666 154.126L164.667 154.125L164.675 154.121L164.678 154.12L164.678 154.119C167.509 152.59 170.61 150.915 173.259 148.782C176.773 145.953 179.618 142.233 180.278 136.788C180.407 135.881 180.521 135.012 180.62 134.163ZM179.287 113.695L505.916 113.695H520.927V84.2495H162.674V113.695H179.287L179.287 113.695ZM161.674 82.2497H152V17.7407C294.94 -1.20394 377.641 -2.61474 530 17.7397V82.2497H521.927L521.927 82.2495H161.674V82.2497ZM161.629 182.579L161.651 182.081H152V339.305H161.674H161.727L161.78 339.311C309.503 355.049 388.308 355.058 521.81 339.312L521.868 339.305H521.927H530V182.081H523.552L523.577 182.578C382.229 189.483 302.97 188.982 161.629 182.579Z" fill="#344F10"/>
<text fill="#333333" xml:space="preserve" style="white-space: pre" font-family="Poppins" font-size="16" letter-spacing="0em"><tspan x="54.2656" y="20.5993">Kaolin</tspan></text>
<text fill="#333333" xml:space="preserve" style="white-space: pre" font-family="Poppins" font-size="16" letter-spacing="0em"><tspan x="61.6562" y="96.5993">Sivak</tspan></text>
<text fill="#333333" xml:space="preserve" style="white-space: pre" font-family="Poppins" font-size="16" letter-spacing="0em"><tspan x="35.5156" y="161.599">Calcium </tspan><tspan x="18.6562" y="185.599">carbonate</tspan></text>
<rect x="199" y="18.9993" width="76" height="1" transform="rotate(-180 199 18.9993)" fill="#333333"/>
<rect x="199" y="91.9993" width="76" height="1" transform="rotate(-180 199 91.9993)" fill="#333333"/>
<rect x="199" y="167.999" width="76" height="1" transform="rotate(-180 199 167.999)" fill="#333333"/>
<rect x="199" y="240.999" width="76" height="1" transform="rotate(-180 199 240.999)" fill="#333333"/>
<rect x="199" y="312.999" width="76" height="1" transform="rotate(-180 199 312.999)" fill="#333333"/>
<text fill="#333333" xml:space="preserve" style="white-space: pre" font-family="Poppins" font-size="16" letter-spacing="0em"><tspan x="6.125" y="245.599">Licorice root</tspan></text>
<text fill="#333333" xml:space="preserve" style="white-space: pre" font-family="Poppins" font-size="16" letter-spacing="0em"><tspan x="32.1094" y="318.599">Turmeric</tspan></text>
</svg>
